<?xml version="1.0" encoding="utf-8"?>
<!-- Generator: Adobe Illustrator 21.0.0, SVG Export Plug-In . SVG Version: 6.00 Build 0)  -->
<svg version="1.1" id="Слой_1" xmlns="http://www.w3.org/2000/svg" xmlns:xlink="http://www.w3.org/1999/xlink" x="0px" y="0px"
	 viewBox="0 0 238 89" style="enable-background:new 0 0 238 89;" xml:space="preserve">
<style type="text/css">
	.st0{fill:#FFFFFF;}
</style>
<g>
	<path class="st0" d="M41.9,45.7h-1.2L33.9,26l-6.4,19.7h-1.2l-9-29h4.1l5.7,20l6.3-20h1.4l6.2,19.9l5.8-19.9h4.1L41.9,45.7z"/>
	<path class="st0" d="M50.5,34.8c0-3.2,0.9-5.8,2.6-7.8c1.7-2,4-3,6.9-3c3,0,5.3,1,7,2.9c1.7,1.9,2.5,4.6,2.5,7.9c0,3.4-0.8,6-2.5,8
		c-1.7,1.9-4,2.9-6.9,2.9c-3,0-5.3-1-7-2.9C51.3,40.8,50.5,38.2,50.5,34.8z M54.4,34.8c0,5.2,1.9,7.9,5.6,7.9c1.7,0,3.1-0.7,4.1-2.1
		c1-1.4,1.5-3.3,1.5-5.8c0-5.2-1.8-7.8-5.5-7.8c-1.7,0-3,0.7-4.1,2.1C54.9,30.5,54.4,32.4,54.4,34.8z"/>
	<path class="st0" d="M84.7,28c-0.8-0.6-1.6-0.8-2.4-0.8c-1.3,0-2.5,0.6-3.4,1.8c-1,1.2-1.5,2.7-1.5,4.4v12h-3.7V24.4h3.7v3.3
		c1.4-2.5,3.4-3.7,6-3.7c0.7,0,1.6,0.1,2.9,0.4L84.7,28z"/>
	<path class="st0" d="M89.2,39.4V15.8h3.7v22.9c0,1.1,0.3,2,1,2.6s1.5,1,2.5,1v3.3C91.6,45.7,89.2,43.6,89.2,39.4z"/>
	<path class="st0" d="M114,45.3v-1.5c-1.3,1.3-3.2,1.9-5.6,1.9c-2.6,0-4.7-0.9-6.4-2.8c-1.6-1.9-2.4-4.4-2.4-7.5
		c0-3.1,0.9-5.8,2.8-8c1.9-2.2,4.1-3.3,6.7-3.3c2.2,0,3.8,0.5,4.9,1.5v-9.7h3.7v29.5H114z M114,29.3c-0.9-1.4-2.2-2.1-3.8-2.1
		c-2,0-3.6,0.7-4.8,2.2s-1.8,3.4-1.8,5.7c0,5,2.3,7.6,6.9,7.6c0.6,0,1.3-0.2,2.1-0.6s1.3-0.8,1.5-1.2V29.3z"/>
	<path class="st0" d="M134,44l1.4-3.6c0.7,0.5,1.6,1,2.7,1.3c1.1,0.4,2.1,0.5,2.9,0.5c1.5,0,2.7-0.4,3.7-1.3
		c0.9-0.8,1.4-1.9,1.4-3.2c0-1-0.3-1.9-0.8-2.7c-0.5-0.8-1.8-1.7-3.9-2.7l-2.3-1.1c-2-0.9-3.3-2-4.1-3.2c-0.8-1.3-1.2-2.8-1.2-4.5
		c0-2.1,0.8-3.9,2.3-5.3c1.5-1.4,3.5-2.1,5.8-2.1c3.2,0,5.4,0.5,6.6,1.5l-1.2,3.4c-0.5-0.4-1.3-0.7-2.4-1.1c-1.1-0.4-2.1-0.5-3-0.5
		c-1.3,0-2.4,0.4-3.1,1.1c-0.8,0.8-1.1,1.7-1.1,2.9c0,0.7,0.1,1.4,0.4,2c0.3,0.6,0.7,1.1,1.1,1.5c0.5,0.4,1.5,1,3,1.7l2.3,1.1
		c2,0.9,3.3,2,4.1,3.3c0.8,1.3,1.2,2.9,1.2,4.9c0,2.1-0.9,4-2.6,5.5c-1.7,1.5-4,2.2-6.9,2.2C138,45.8,135.8,45.2,134,44z"/>
	<path class="st0" d="M155.6,27.3h-2.4v-2.9h2.4V20l3.7-1.4v5.8h5.7v2.9h-5.7v10.4c0,1.8,0.3,3,0.9,3.8c0.6,0.7,1.5,1.1,2.9,1.1
		c1,0,1.9-0.2,2.9-0.7l0.5,3.3c-1.5,0.4-3.2,0.6-5.1,0.6c-1.7,0-3.1-0.6-4.2-1.8c-1.1-1.2-1.7-2.8-1.7-4.7V27.3z"/>
	<path class="st0" d="M168.8,34.8c0-3.2,0.9-5.8,2.6-7.8c1.7-2,4-3,6.9-3c3,0,5.3,1,7,2.9c1.7,1.9,2.5,4.6,2.5,7.9
		c0,3.4-0.8,6-2.5,8c-1.7,1.9-4,2.9-6.9,2.9c-3,0-5.3-1-7-2.9C169.6,40.8,168.8,38.2,168.8,34.8z M172.7,34.8c0,5.2,1.9,7.9,5.6,7.9
		c1.7,0,3.1-0.7,4.1-2.1c1-1.4,1.5-3.3,1.5-5.8c0-5.2-1.8-7.8-5.5-7.8c-1.7,0-3,0.7-4.1,2.1C173.2,30.5,172.7,32.4,172.7,34.8z"/>
	<path class="st0" d="M203,28c-0.8-0.6-1.6-0.8-2.4-0.8c-1.3,0-2.5,0.6-3.4,1.8c-1,1.2-1.5,2.7-1.5,4.4v12h-3.7V24.4h3.7v3.3
		c1.4-2.5,3.4-3.7,6-3.7c0.7,0,1.6,0.1,2.9,0.4L203,28z"/>
	<path class="st0" d="M224.8,35.2h-15.1c0,2.4,0.7,4.3,2,5.6c1.2,1.1,2.7,1.7,4.6,1.7c2.1,0,3.9-0.6,5.3-1.9l1.6,2.7
		c-0.6,0.6-1.5,1.1-2.6,1.5c-1.5,0.5-3.1,0.8-5,0.8c-2.6,0-4.9-0.9-6.7-2.7c-2-2-3.1-4.6-3.1-7.9c0-3.5,1-6.2,3.1-8.3
		c1.9-1.9,4.1-2.8,6.7-2.8c3,0,5.3,0.8,7,2.5c1.6,1.6,2.5,3.8,2.5,6.4C225,33.8,224.9,34.5,224.8,35.2z M215.8,27.1
		c-1.7,0-3,0.5-4.2,1.6c-1.1,1-1.7,2.3-1.8,3.8h11.6c0-1.5-0.5-2.7-1.4-3.8C218.9,27.7,217.5,27.1,215.8,27.1z"/>
</g>
<g>
	<path class="st0" d="M24.1,63h-1.3v-5l-4.6,5.2h-0.3v-7.5h1.3v5l4.6-5.2h0.3V63z"/>
	<path class="st0" d="M32.1,63h-1.3v-3.3h-3.4V63h-1.3v-7.3h1.3v2.9h3.4v-2.9h1.3V63z"/>
	<path class="st0" d="M39.2,56.8h-2.1V63h-1.3v-6.2h-2.1v-1.1h5.5V56.8z"/>
	<path class="st0" d="M46.9,59.5h-5.3c0,0.5,0.1,1,0.3,1.4s0.4,0.7,0.8,0.9c0.3,0.2,0.8,0.3,1.2,0.3c0.7,0,1.4-0.2,1.9-0.7l0.5,1.1
		c-0.3,0.3-0.7,0.5-1.1,0.6c-0.4,0.1-0.9,0.1-1.5,0.1c-1,0-1.8-0.3-2.5-1c-0.6-0.7-1-1.6-1-2.7c0-1.2,0.3-2.1,1-2.8
		c0.7-0.7,1.5-1.1,2.4-1.1c1,0,1.8,0.3,2.4,0.9c0.6,0.6,0.9,1.3,0.9,2.3C47,58.9,47,59.1,46.9,59.5z M43.7,56.6
		c-0.6,0-1,0.2-1.4,0.6c-0.4,0.4-0.6,0.8-0.6,1.3h4c0-0.6-0.2-1-0.5-1.4C44.8,56.8,44.3,56.6,43.7,56.6z"/>
	<path class="st0" d="M49.9,62.6v3.3h-1.3V55.7h1.3v0.6c0.5-0.5,1.1-0.7,1.8-0.7c1,0,1.8,0.3,2.4,1c0.6,0.7,0.9,1.6,0.9,2.8
		c0,1.1-0.3,2-0.9,2.7s-1.4,1-2.5,1c-0.3,0-0.6-0.1-1-0.2S50,62.7,49.9,62.6z M49.9,57.3v4.3c0.1,0.1,0.3,0.3,0.5,0.4
		c0.3,0.1,0.5,0.2,0.8,0.2c1.6,0,2.4-0.9,2.4-2.7c0-0.9-0.2-1.6-0.6-2c-0.4-0.4-1-0.6-1.8-0.6c-0.2,0-0.4,0.1-0.7,0.2
		S50,57.1,49.9,57.3z"/>
	<path class="st0" d="M62.6,63h-1.3v-3.3h-3.4V63h-1.3v-7.3h1.3v2.9h3.4v-2.9h1.3V63z"/>
	<path class="st0" d="M70.8,59.5h-5.3c0,0.5,0.1,1,0.3,1.4s0.4,0.7,0.8,0.9c0.3,0.2,0.8,0.3,1.2,0.3c0.7,0,1.4-0.2,1.9-0.7l0.5,1.1
		c-0.3,0.3-0.7,0.5-1.1,0.6c-0.4,0.1-0.9,0.1-1.5,0.1c-1,0-1.8-0.3-2.5-1c-0.6-0.7-1-1.6-1-2.7c0-1.2,0.3-2.1,1-2.8
		c0.7-0.7,1.5-1.1,2.4-1.1c1,0,1.8,0.3,2.4,0.9c0.6,0.6,0.9,1.3,0.9,2.3C70.9,58.9,70.9,59.1,70.8,59.5z M67.6,56.6
		c-0.6,0-1,0.2-1.4,0.6c-0.4,0.4-0.6,0.8-0.6,1.3h4c0-0.6-0.2-1-0.5-1.4C68.7,56.8,68.2,56.6,67.6,56.6z"/>
	<path class="st0" d="M77.5,56.8h-2.1V63h-1.3v-6.2H72v-1.1h5.5V56.8z"/>
	<path class="st0" d="M79.2,59.5v-1.2h2.9v1.2H79.2z"/>
	<path class="st0" d="M91.4,63l-0.8-4.4l-2.2,4.5h-0.3l-2.2-4.5L85.1,63h-1.3l1.4-7.5h0.3l2.7,5.5l2.7-5.5h0.3l1.4,7.5H91.4z"/>
	<path class="st0" d="M98.2,62.2c-0.5,0.7-1.3,1-2.4,1c-0.6,0-1.1-0.2-1.5-0.6s-0.6-0.9-0.6-1.6c0-0.7,0.3-1.4,1-1.9
		s1.5-0.8,2.5-0.8c0.3,0,0.6,0.1,0.9,0.2c0-1.2-0.5-1.8-1.6-1.8c-0.8,0-1.4,0.2-1.9,0.7l-0.5-1.1c0.2-0.2,0.6-0.4,1-0.5
		s0.9-0.2,1.3-0.2c1,0,1.8,0.2,2.3,0.7s0.7,1.2,0.7,2.3v2.6c0,0.6,0.2,1.1,0.6,1.3v0.6c-0.6,0-1-0.1-1.2-0.3S98.3,62.5,98.2,62.2z
		 M98.1,59.4c-0.5-0.1-0.8-0.1-0.9-0.1c-0.7,0-1.2,0.2-1.6,0.5S95,60.5,95,61c0,0.8,0.4,1.1,1.3,1.1c0.6,0,1.2-0.3,1.8-0.9V59.4z"/>
	<path class="st0" d="M106.3,56.8h-3.4V63h-1.3v-7.3h4.7V56.8z"/>
	<path class="st0" d="M111.9,62.2c-0.5,0.7-1.3,1-2.4,1c-0.6,0-1.1-0.2-1.5-0.6s-0.6-0.9-0.6-1.6c0-0.7,0.3-1.4,1-1.9
		s1.5-0.8,2.5-0.8c0.3,0,0.6,0.1,0.9,0.2c0-1.2-0.5-1.8-1.6-1.8c-0.8,0-1.4,0.2-1.9,0.7l-0.5-1.1c0.2-0.2,0.6-0.4,1-0.5
		s0.9-0.2,1.3-0.2c1,0,1.8,0.2,2.3,0.7s0.7,1.2,0.7,2.3v2.6c0,0.6,0.2,1.1,0.6,1.3v0.6c-0.6,0-1-0.1-1.2-0.3S112,62.5,111.9,62.2z
		 M111.8,59.4c-0.5-0.1-0.8-0.1-0.9-0.1c-0.7,0-1.2,0.2-1.6,0.5s-0.6,0.7-0.6,1.2c0,0.8,0.4,1.1,1.3,1.1c0.6,0,1.2-0.3,1.8-0.9V59.4
		z"/>
	<path class="st0" d="M118.8,59.2c0.9,0.3,1.4,0.9,1.4,1.8c0,0.7-0.3,1.2-0.8,1.6s-1.2,0.6-2.1,0.6c-1,0-1.9-0.3-2.7-0.8l0.7-1
		c0.6,0.5,1.3,0.8,2.1,0.8c0.4,0,0.8-0.1,1.1-0.3c0.3-0.2,0.4-0.5,0.4-0.8c0-0.9-0.5-1.3-1.6-1.3c-0.3,0-0.6,0-0.8,0v-1
		c0.1,0,0.4,0,0.9,0c0.4,0,0.8-0.1,1-0.3c0.2-0.2,0.4-0.4,0.4-0.7c0-0.3-0.1-0.6-0.3-0.8c-0.2-0.2-0.5-0.3-0.9-0.3
		c-0.6,0-1.3,0.2-1.9,0.6l-0.5-1.1c0.8-0.4,1.7-0.6,2.5-0.6c0.7,0,1.3,0.2,1.8,0.6c0.5,0.4,0.7,0.9,0.7,1.5
		C120,58.4,119.6,58.9,118.8,59.2z"/>
	<path class="st0" d="M128,63h-1.3v-5l-4.6,5.2h-0.3v-7.5h1.3v5l4.6-5.2h0.3V63z"/>
	<path class="st0" d="M136,63h-1.3v-3.3h-3.4V63H130v-7.3h1.3v2.9h3.4v-2.9h1.3V63z"/>
	<path class="st0" d="M147.5,63l-0.7-2.1h-3.7l-0.7,2.1h-1.5l4.1-10.2h0.4L149,63H147.5z M145,55.5l-1.6,4.4h3L145,55.5z"/>
	<path class="st0" d="M151.5,62.6v3.3h-1.3V55.7h1.3v0.6c0.5-0.5,1.1-0.7,1.8-0.7c1,0,1.8,0.3,2.4,1c0.6,0.6,0.9,1.6,0.9,2.8
		c0,1.1-0.3,2-0.9,2.7c-0.6,0.7-1.4,1.1-2.5,1.1c-0.3,0-0.6-0.1-1-0.2S151.6,62.7,151.5,62.6z M151.5,57.3v4.3
		c0.1,0.1,0.3,0.2,0.5,0.4c0.3,0.1,0.5,0.2,0.8,0.2c1.6,0,2.4-0.9,2.4-2.7c0-0.9-0.2-1.6-0.6-2s-1-0.6-1.8-0.6
		c-0.2,0-0.4,0.1-0.7,0.2C151.8,57,151.6,57.1,151.5,57.3z"/>
	<path class="st0" d="M159.5,62.6v3.3h-1.3V55.7h1.3v0.6c0.5-0.5,1.1-0.7,1.8-0.7c1,0,1.8,0.3,2.4,1s0.9,1.6,0.9,2.8
		c0,1.1-0.3,2-0.9,2.7c-0.6,0.7-1.4,1.1-2.5,1.1c-0.3,0-0.6-0.1-1-0.2C159.8,62.9,159.6,62.7,159.5,62.6z M159.5,57.3v4.3
		c0.1,0.1,0.3,0.2,0.5,0.4c0.3,0.1,0.5,0.2,0.8,0.2c1.6,0,2.4-0.9,2.4-2.7c0-0.9-0.2-1.6-0.6-2s-1-0.6-1.8-0.6
		c-0.2,0-0.4,0.1-0.7,0.2S159.6,57.1,159.5,57.3z"/>
	<path class="st0" d="M166.3,60.9v-8.3h1.3v8c0,0.4,0.1,0.7,0.3,0.9c0.2,0.2,0.5,0.3,0.9,0.3v1.2C167.1,63.1,166.3,62.4,166.3,60.9z
		"/>
	<path class="st0" d="M176.7,59.5h-5.3c0,0.9,0.2,1.5,0.7,2c0.4,0.4,0.9,0.6,1.6,0.6c0.7,0,1.4-0.2,1.9-0.6l0.5,0.9
		c-0.2,0.2-0.5,0.4-0.9,0.5c-0.5,0.2-1.1,0.3-1.7,0.3c-0.9,0-1.7-0.3-2.3-0.9c-0.7-0.7-1.1-1.6-1.1-2.8c0-1.2,0.4-2.2,1.1-2.9
		c0.7-0.7,1.4-1,2.3-1c1,0,1.9,0.3,2.5,0.9c0.6,0.6,0.9,1.3,0.9,2.2C176.8,59,176.8,59.2,176.7,59.5z M173.6,56.6
		c-0.6,0-1.1,0.2-1.5,0.6c-0.4,0.4-0.6,0.8-0.6,1.3h4.1c0-0.5-0.2-1-0.5-1.3C174.7,56.8,174.2,56.6,173.6,56.6z"/>
	<path class="st0" d="M187.2,59.1c0.9,0.3,1.4,0.9,1.4,1.8c0,0.6-0.2,1.1-0.7,1.5c-0.5,0.4-1.2,0.6-2.1,0.6h-3v-7.3
		c1-0.1,2-0.1,2.9-0.1c0.8,0,1.5,0.2,1.9,0.5c0.5,0.3,0.7,0.8,0.7,1.5c0,0.3-0.1,0.6-0.3,0.9S187.5,58.9,187.2,59.1z M184,58.7
		c0.1,0,0.6,0,1.6,0c0.9,0,1.4-0.4,1.4-1.1c0-0.3-0.1-0.6-0.3-0.7c-0.2-0.2-0.5-0.3-0.9-0.3c-0.8,0-1.3,0-1.7,0.1V58.7z M184,62
		c0.5,0,1,0,1.6,0c1.1,0,1.6-0.4,1.6-1.2c0-0.4-0.1-0.7-0.4-0.9c-0.3-0.2-0.7-0.3-1.2-0.3c-0.7,0-1.2,0-1.6,0V62z"/>
	<path class="st0" d="M198.7,54.2V63h-1.4v-8.8h-3.2V53h7.9v1.2H198.7z"/>
	<path class="st0" d="M206.4,64.2c-0.2,0.5-0.5,0.8-1.1,1.2c-0.5,0.3-1.1,0.5-1.8,0.5v-1.2c0.5,0,1-0.1,1.4-0.4
		c0.4-0.3,0.6-0.6,0.6-0.9c0-0.4-0.1-0.8-0.2-1.2l-2.5-6.5h1.3l2.1,5.7l1.9-5.7h1.3L206.4,64.2z"/>
	<path class="st0" d="M216.8,63h-1.3v-6.3h-2c0,1-0.1,2-0.3,2.9c-0.2,0.9-0.4,1.6-0.8,2.2c-0.3,0.6-0.7,0.9-1,1.1s-0.8,0.3-1.3,0.3
		v-1.2c0.8,0,1.4-0.6,1.7-1.9c0.3-1.3,0.5-2.5,0.5-3.6v-0.7h4.5V63z"/>
	<path class="st0" d="M225,59.5h-5.3c0,0.5,0.1,1,0.3,1.4s0.4,0.7,0.8,0.9c0.3,0.2,0.8,0.3,1.2,0.3c0.7,0,1.4-0.2,1.9-0.7l0.5,1.1
		c-0.3,0.3-0.7,0.5-1.1,0.6c-0.4,0.1-0.9,0.1-1.5,0.1c-1,0-1.8-0.3-2.5-1c-0.6-0.7-1-1.6-1-2.7c0-1.2,0.3-2.1,1-2.8
		c0.7-0.7,1.5-1.1,2.4-1.1c1,0,1.8,0.3,2.4,0.9c0.6,0.6,0.9,1.3,0.9,2.3C225.1,58.9,225,59.1,225,59.5z M221.8,56.6
		c-0.6,0-1,0.2-1.4,0.6c-0.4,0.4-0.6,0.8-0.6,1.3h4c0-0.6-0.2-1-0.5-1.4C222.9,56.8,222.4,56.6,221.8,56.6z"/>
</g>
</svg>
